# xmcd
#
# Track frame offsets: 
#        150
#        20608
#        32897
#        49824
#        62301
#        79030
#        94273
#        110340
#        120508
#        134940
#        150881
#        169358
#
# Disc length: 2486 seconds
#
# Revision: 0
# Processed by: cddbd v1.5.2PL0 Copyright (c) Steve Scherf et al.
# Submitted via: ExactAudioCopyFreeDBPlugin 1.0
#
DISCID=9909b40c
DTITLE=Two Gallants - The Bloom And The Blight
DYEAR=2012
DGENRE=Indie
TTITLE0=Halcyon Days
TTITLE1=Song Of Songs
TTITLE2=My Love Won't Wait
TTITLE3=Broken Eyes
TTITLE4=Ride Away
TTITLE5=Decay
TTITLE6=Winter's Youth
TTITLE7=Willie
TTITLE8=Cradle Pyre
TTITLE9=Sunday Souvenirs
TTITLE10=Dyin' Crapshooter Blues
TTITLE11=I'm So Depressed
EXTD=
EXTT0=
EXTT1=
EXTT2=
EXTT3=
EXTT4=
EXTT5=
EXTT6=
EXTT7=
EXTT8=
EXTT9=
EXTT10=
EXTT11=
PLAYORDER=
